<?xml version="1.0" encoding="UTF-8" standalone="no"?>
<!-- Generator: Adobe Illustrator 18.0.0, SVG Export Plug-In . SVG Version: 6.00 Build 0)  -->

<svg
   xmlns:dc="http://purl.org/dc/elements/1.1/"
   xmlns:cc="http://creativecommons.org/ns#"
   xmlns:rdf="http://www.w3.org/1999/02/22-rdf-syntax-ns#"
   xmlns:svg="http://www.w3.org/2000/svg"
   xmlns="http://www.w3.org/2000/svg"
   xmlns:sodipodi="http://sodipodi.sourceforge.net/DTD/sodipodi-0.dtd"
   xmlns:inkscape="http://www.inkscape.org/namespaces/inkscape"
   version="1.1"
   id="Capa_1"
   x="0px"
   y="0px"
   viewBox="0 0 53.679 53.679"
   style="enable-background:new 0 0 53.679 53.679;"
   xml:space="preserve"
   sodipodi:docname="tomato2.svg"
   inkscape:version="0.92.3 (2405546, 2018-03-11)"><metadata
   id="metadata45"><rdf:RDF><cc:Work
       rdf:about=""><dc:format>image/svg+xml</dc:format><dc:type
         rdf:resource="http://purl.org/dc/dcmitype/StillImage" /><dc:title></dc:title></cc:Work></rdf:RDF></metadata><defs
   id="defs43" /><sodipodi:namedview
   pagecolor="#ffffff"
   bordercolor="#666666"
   borderopacity="1"
   objecttolerance="10"
   gridtolerance="10"
   guidetolerance="10"
   inkscape:pageopacity="0"
   inkscape:pageshadow="2"
   inkscape:window-width="2556"
   inkscape:window-height="1436"
   id="namedview41"
   showgrid="false"
   inkscape:zoom="8.7930102"
   inkscape:cx="30.915694"
   inkscape:cy="27.596848"
   inkscape:window-x="1920"
   inkscape:window-y="31"
   inkscape:window-maximized="0"
   inkscape:current-layer="Capa_1" />

<g
   id="g10"
   transform="matrix(1.1095898,0,0,1.1095898,8.6755588,7.5347547)"
   style="stroke:#333333;fill:#333333">
</g>
<g
   id="g12"
   transform="matrix(1.1095898,0,0,1.1095898,8.6755588,7.5347547)"
   style="stroke:#333333;fill:#333333">
</g>
<g
   id="g14"
   transform="matrix(1.1095898,0,0,1.1095898,8.6755588,7.5347547)"
   style="stroke:#333333;fill:#333333">
</g>
<g
   id="g16"
   transform="matrix(1.1095898,0,0,1.1095898,8.6755588,7.5347547)"
   style="stroke:#333333;fill:#333333">
</g>
<g
   id="g18"
   transform="matrix(1.1095898,0,0,1.1095898,8.6755588,7.5347547)"
   style="stroke:#333333;fill:#333333">
</g>
<g
   id="g20"
   transform="matrix(1.1095898,0,0,1.1095898,8.6755588,7.5347547)"
   style="stroke:#333333;fill:#333333">
</g>
<g
   id="g22"
   transform="matrix(1.1095898,0,0,1.1095898,8.6755588,7.5347547)"
   style="stroke:#333333;fill:#333333">
</g>
<g
   id="g24"
   transform="matrix(1.1095898,0,0,1.1095898,8.6755588,7.5347547)"
   style="stroke:#333333;fill:#333333">
</g>
<g
   id="g26"
   transform="matrix(1.1095898,0,0,1.1095898,8.6755588,7.5347547)"
   style="stroke:#333333;fill:#333333">
</g>
<g
   id="g28"
   transform="matrix(1.1095898,0,0,1.1095898,8.6755588,7.5347547)"
   style="stroke:#333333;fill:#333333">
</g>
<g
   id="g30"
   transform="matrix(1.1095898,0,0,1.1095898,8.6755588,7.5347547)"
   style="stroke:#333333;fill:#333333">
</g>
<g
   id="g32"
   transform="matrix(1.1095898,0,0,1.1095898,8.6755588,7.5347547)"
   style="stroke:#333333;fill:#333333">
</g>
<g
   id="g34"
   transform="matrix(1.1095898,0,0,1.1095898,8.6755588,7.5347547)"
   style="stroke:#333333;fill:#333333">
</g>
<g
   id="g36"
   transform="matrix(1.1095898,0,0,1.1095898,8.6755588,7.5347547)"
   style="stroke:#333333;fill:#333333">
</g>
<g
   id="g38"
   transform="matrix(1.1095898,0,0,1.1095898,8.6755588,7.5347547)"
   style="stroke:#333333;fill:#333333">
</g>
<g
   id="g3868"
   transform="matrix(0.64684729,0,0,0.64684729,68.801821,21.292451)"
   style="fill:#333333;stroke:#333333"><path
     style="fill:#333333;stroke:#333333;stroke-width:0.27259243"
     id="path3837"
     d="m -46.72223,0.18980447 c -6.623995,0 -11.994066,5.37007043 -11.994066,11.99406653 0,6.624268 5.370071,11.994066 11.994066,11.994066 6.624269,0 11.994067,-5.369798 11.994067,-11.994066 0,-6.6239961 -5.369798,-11.99406653 -11.994067,-11.99406653 z m 0,21.80739353 c -5.419682,0 -9.813327,-4.393645 -9.813327,-9.813327 0,-5.4196828 4.393645,-9.8133272 9.813327,-9.8133272 5.419683,0 9.813327,4.3936444 9.813327,9.8133272 0,5.419682 -4.393644,9.813327 -9.813327,9.813327 z"
     inkscape:connector-curvature="0" /><path
     style="fill:#333333;stroke:#333333;stroke-width:0.27259243"
     id="path3839"
     d="M -45.63186,11.732185 V 5.6416527 c 0,-0.6021567 -0.488213,-1.0903697 -1.09037,-1.0903697 -0.602156,0 -1.090369,0.488213 -1.090369,1.0903697 v 6.5422183 c 0,0.0025 8.17e-4,0.0049 8.17e-4,0.0074 2.73e-4,0.06897 0.0071,0.137931 0.02072,0.205807 0.0065,0.03353 0.01881,0.06379 0.02835,0.0965 0.01063,0.03598 0.01881,0.07251 0.03326,0.107674 0.01581,0.03762 0.03707,0.07196 0.0567,0.107401 0.01472,0.02726 0.02644,0.05452 0.04361,0.08042 0.04007,0.06024 0.08559,0.116669 0.136569,0.167099 l 3.083293,3.083565 c 0.425789,0.42579 1.116811,0.42579 1.542328,0 0.425789,-0.425789 0.425789,-1.116811 0,-1.541782 z"
     inkscape:connector-curvature="0" /></g><g
   id="g8"
   style="fill:#ff0000;stroke:#ff0000"
   transform="matrix(0.93132528,0,0,0.87059307,1.8696139,0.58524329)">
	<path
   d="M 42.819,10.169 42.815,10.166 C 42.798,10.154 42.777,10.148 42.76,10.137 42.804,9.536 42.539,8.956 42.009,8.617 39.435,6.967 34.455,4.558 29.522,6.534 V 2.786 C 29.522,1.25 28.409,0 27.041,0 H 24.818 C 23.449,0 22.336,1.25 22.336,2.786 V 6.891 C 20.112,6.495 15.267,6.103 10.611,8.884 c -0.706,0.42 -0.996,1.255 -0.705,2.028 0.029,0.079 0.083,0.138 0.122,0.209 -0.102,0.027 -0.208,0.05 -0.309,0.077 -0.236,0.063 -0.462,0.18 -0.658,0.341 -5.508,4.583 -8.667,11.117 -8.667,17.925 0,13.352 11.863,24.214 26.446,24.214 14.583,0 26.446,-10.862 26.446,-24.214 0,-7.638 -3.815,-14.671 -10.467,-19.295 z M 22.332,8.928 c 0.491,0.103 0.997,-0.021 1.387,-0.34 0.393,-0.319 0.617,-0.794 0.617,-1.301 V 2.786 C 24.336,2.344 24.596,2 24.818,2 h 2.223 c 0.223,0 0.481,0.344 0.481,0.786 v 4.249 c 0,0.57 0.286,1.095 0.766,1.403 0.481,0.31 1.08,0.353 1.602,0.113 3.655,-1.671 7.521,-0.249 9.994,1.124 -2.332,-0.03 -4.23,0.155 -5.684,0.513 -0.658,0.161 -1.147,0.697 -1.246,1.366 -0.101,0.685 0.222,1.354 0.821,1.708 1.454,0.855 2.406,1.815 3.038,2.758 0.455,0.679 0.748,1.349 0.92,1.964 -2.191,-1.794 -4.648,-2.453 -6.332,-2.689 -0.561,-0.079 -1.037,-0.11 -1.388,-0.122 -0.46,-0.015 -0.896,0.154 -1.226,0.478 -0.327,0.321 -0.511,0.77 -0.504,1.231 0.08,5.136 -1.695,8.581 -2.727,10.14 -0.985,-2.088 -1.289,-6.58 -1.234,-10.271 0.014,-0.852 -0.621,-1.577 -1.479,-1.688 -0.257,-0.033 -0.517,-0.049 -0.778,-0.049 -0.05,0 -0.101,0.009 -0.15,0.011 -0.136,0.003 -0.273,0.018 -0.41,0.029 -0.206,0.017 -0.412,0.037 -0.619,0.072 -0.134,0.022 -0.268,0.051 -0.402,0.08 -0.213,0.046 -0.425,0.098 -0.637,0.159 -0.129,0.037 -0.257,0.077 -0.385,0.12 -0.219,0.073 -0.436,0.152 -0.653,0.239 -0.122,0.049 -0.243,0.097 -0.364,0.15 -0.222,0.097 -0.442,0.2 -0.66,0.309 -0.114,0.056 -0.228,0.111 -0.341,0.17 -0.225,0.118 -0.445,0.243 -0.665,0.371 -0.103,0.06 -0.206,0.116 -0.308,0.178 -0.239,0.145 -0.471,0.295 -0.701,0.447 -0.075,0.05 -0.153,0.097 -0.227,0.147 -0.303,0.205 -0.598,0.414 -0.883,0.625 0.358,-0.649 0.74,-1.227 1.129,-1.747 0.021,-0.028 0.041,-0.06 0.061,-0.087 0.409,-0.539 0.824,-1.01 1.228,-1.419 0.002,-0.002 0.004,-0.004 0.006,-0.006 0.533,-0.54 1.038,-0.961 1.483,-1.295 0.064,-0.048 0.132,-0.103 0.193,-0.147 0.036,-0.026 0.065,-0.044 0.1,-0.069 0.123,-0.087 0.245,-0.172 0.353,-0.243 0.524,-0.343 0.812,-0.943 0.747,-1.568 -0.063,-0.626 -0.466,-1.158 -1.051,-1.389 -0.051,-0.02 -0.114,-0.03 -0.167,-0.049 C 18.522,10.024 18.287,9.955 18.039,9.894 17.887,9.856 17.733,9.82 17.571,9.79 17.548,9.786 17.528,9.779 17.504,9.775 17.489,9.772 17.475,9.776 17.46,9.774 c -1.141,-0.2 -2.487,-0.23 -4.056,-0.062 3.772,-1.564 7.401,-1.1 8.928,-0.784 z m 4.507,42.751 c -13.479,0 -24.446,-9.965 -24.446,-22.214 0,-6.195 2.881,-12.153 7.899,-16.349 2.157,-0.574 4.478,-1.034 6.829,-1.368 0.079,0.014 0.166,0.022 0.242,0.038 0.063,0.013 0.128,0.025 0.188,0.039 -0.09,0.065 -0.19,0.147 -0.285,0.219 -0.104,0.08 -0.203,0.152 -0.312,0.24 -0.095,0.077 -0.196,0.169 -0.294,0.252 -0.121,0.103 -0.238,0.198 -0.363,0.311 -0.118,0.107 -0.24,0.231 -0.361,0.348 -0.111,0.107 -0.219,0.205 -0.332,0.32 -0.202,0.206 -0.406,0.433 -0.61,0.666 -0.034,0.039 -0.067,0.071 -0.101,0.11 -0.958,1.114 -1.92,2.535 -2.699,4.312 -0.313,0.717 -0.104,1.517 0.521,1.989 0.624,0.472 1.481,0.454 2.084,-0.042 1.709,-1.407 4.902,-3.703 7.521,-3.53 -0.026,2.813 0.123,8.915 1.795,11.519 0.3,0.467 0.811,0.756 1.363,0.772 0.017,0 0.033,0 0.05,0 0.534,0 1.037,-0.255 1.354,-0.69 1.037,-1.425 3.413,-5.356 3.405,-11.434 1.461,0.096 4.432,0.587 6.794,2.894 0.516,0.503 1.266,0.622 1.907,0.301 0.648,-0.322 1.009,-0.995 0.918,-1.716 -0.058,-0.455 -0.161,-0.955 -0.324,-1.479 -0.007,-0.023 -0.011,-0.044 -0.018,-0.068 -0.154,-0.483 -0.374,-0.988 -0.652,-1.499 -0.038,-0.071 -0.066,-0.14 -0.107,-0.211 -0.125,-0.217 -0.278,-0.435 -0.43,-0.652 -0.053,-0.076 -0.094,-0.152 -0.15,-0.228 -0.13,-0.174 -0.288,-0.347 -0.437,-0.52 -0.102,-0.119 -0.189,-0.239 -0.3,-0.357 -0.13,-0.138 -0.29,-0.273 -0.434,-0.409 -0.158,-0.15 -0.302,-0.302 -0.477,-0.45 -0.151,-0.127 -0.334,-0.249 -0.499,-0.374 -0.199,-0.151 -0.383,-0.305 -0.603,-0.452 0.5,-0.086 1.124,-0.164 1.884,-0.219 0.03,-0.002 0.061,-0.004 0.092,-0.006 0.15,-0.01 0.307,-0.019 0.467,-0.027 0.086,-0.004 0.173,-0.008 0.262,-0.012 0.124,-0.005 0.249,-0.01 0.379,-0.014 0.158,-0.005 0.321,-0.008 0.488,-0.01 0.077,-10e-4 0.153,-0.003 0.232,-0.004 0.305,-0.003 0.628,-0.001 0.963,0.004 l 0.359,0.032 c 0.296,0.04 0.593,0.075 0.89,0.111 l 0.248,0.029 c 6.068,4.245 9.547,10.66 9.547,17.611 0,12.252 -10.967,22.217 -24.447,22.217 z"
   id="path2"
   style="fill:#ff0000;stroke:#ff0000"
   inkscape:connector-curvature="0" />
	<path
   d="M 6.452,30.709 C 6.372,30.163 5.873,29.778 5.317,29.865 4.771,29.945 4.393,30.453 4.473,31 c 0.219,1.488 0.709,2.884 1.457,4.146 0.187,0.315 0.52,0.49 0.861,0.49 0.173,0 0.349,-0.045 0.509,-0.14 C 7.776,35.215 7.932,34.6 7.651,34.126 7.044,33.104 6.629,31.922 6.452,30.709 Z"
   id="path4"
   style="fill:#ff0000;stroke:#ff0000"
   inkscape:connector-curvature="0" />
	<path
   d="m 5.518,27.676 c 0.023,0.002 0.047,0.003 0.07,0.003 0.521,0 0.96,-0.403 0.996,-0.931 0.08,-1.139 0.313,-2.244 0.694,-3.285 C 7.467,22.943 7.201,22.369 6.682,22.18 6.16,21.992 5.588,22.257 5.399,22.776 4.955,23.994 4.682,25.283 4.588,26.61 c -0.037,0.55 0.378,1.028 0.93,1.066 z"
   id="path6"
   style="fill:#ff0000;stroke:#ff0000"
   inkscape:connector-curvature="0" />
</g></svg>